<svg xmlns="http://www.w3.org/2000/svg" viewBox="0 0 105 105"><title>Heart icon by Francielly Costantin Senra from the Noun Project</title><path d="M52.51,102.92l-1.43-1C18.28,78.9,1.57,58,0,37.85V31.74C1.51,13.05,13.89,3.39,24.77,2.32c1.68-.16,3.28-.24,4.77-.24,10,0,18.38,7.06,23,15.27,4.58-8.21,13-15.27,23-15.27,1.48,0,3.08.08,4.77.24C91.11,3.39,103.49,13.05,105,31.74v6.11C103.43,58,86.73,78.91,54,101.91ZM5,37.56C6.45,55.51,22.43,75.43,52.51,96.81c30.07-21.36,46-41.29,47.49-59.25V32C98.7,16.28,88.6,8.17,79.75,7.3c-1.53-.15-3-.22-4.29-.22-9.7,0-17.7,8.64-20.59,17.18l-2.37,7-2.37-7C47.24,15.72,39.24,7.08,29.54,7.08c-1.33,0-2.77.07-4.29.22C16.4,8.17,6.3,16.28,5,32Z"/></svg>