<svg xmlns="http://www.w3.org/2000/svg" viewBox="0 0 90 87.56"><defs><style>.a{fill:none;}</style></defs><title>Icon by Alena Artemova from the Noun Project</title><path class="a" d="M63.21,4.74a22.12,22.12,0,0,0-16.45,7.35,2.44,2.44,0,0,1-3.52,0,22.06,22.06,0,0,0-38.5,14.7c0,.39,0,.78,0,1.16v.24C4.37,36.08,7.54,57,44.93,82.33c35-23.68,40.22-43.32,40.2-53a2.18,2.18,0,0,1,0-.25A22.06,22.06,0,0,0,63.21,4.74Z"/><path d="M63.21,0A26.81,26.81,0,0,0,45,7.14,26.79,26.79,0,0,0,0,26.79c0,.43,0,.86,0,1.28C-.47,39,4.55,61.08,43.4,87a2.24,2.24,0,0,0,.55.35,2.35,2.35,0,0,0,1,.21,2.6,2.6,0,0,0,.56-.07,2.92,2.92,0,0,0,.56-.21,2.45,2.45,0,0,0,.38-.24C84.14,61.88,89.85,40.23,89.87,29.47A26.83,26.83,0,0,0,63.21,0ZM85.14,29.1a2.18,2.18,0,0,0,0,.25c0,9.66-5.2,29.3-40.2,53C7.54,57,4.37,36.08,4.77,28.19V28q0-.59,0-1.17a22.06,22.06,0,0,1,38.5-14.7,2.42,2.42,0,0,0,3.52,0,22.06,22.06,0,0,1,38.38,17Z"/></svg>