<svg xmlns="http://www.w3.org/2000/svg" viewBox="0 0 29.71 29.72"><title>Ears drawing by Kate Maldjian from the Noun Project</title><path d="M25.26,17.16a3.76,3.76,0,0,0-.67.12c-1.17.43-2.35.82-3.48,1.31a28.16,28.16,0,0,0-2.5,1.3.72.72,0,0,1-.84,0,5.58,5.58,0,0,0-5.56-.3,2,2,0,0,1-1.9,0c-.15-.08-.33-.14-.49-.23A18.19,18.19,0,0,0,5.3,17.72a5.91,5.91,0,0,0-1,0L7.21,24a3.94,3.94,0,0,0-.26.55c-.27.79-.53,1.57-.79,2.35a14.69,14.69,0,0,0,8.7,2.82,14.89,14.89,0,0,0,6.33-1.41,5.35,5.35,0,0,0-.12-1.13,3.72,3.72,0,0,1,.38-2.88c.85-1.32,1.73-2.63,2.58-4,.43-.66.81-1.35,1.19-2A.92.92,0,0,0,25.26,17.16Z"/><path d="M14,11.33v-.06h0a.42.42,0,0,1,.42-.42,3.05,3.05,0,0,0,0-6.1,3,3,0,0,0-2.63,1.53.43.43,0,0,1-.58.14.39.39,0,0,1-.14-.57A3.83,3.83,0,0,1,14.4,3.89a3.89,3.89,0,0,1,.43,7.76v1.93a.43.43,0,0,1-.85,0Zm0,4.36a.43.43,0,1,1,.85,0v.39a.43.43,0,0,1-.85,0Z"/></svg>