<svg xmlns="http://www.w3.org/2000/svg" viewBox="0 0 90 90"><defs><style>.a{fill:none;}</style></defs><title>Icon by Alena Artemova from the Noun Project</title><circle class="a" cx="32.16" cy="25.41" r="21.05"/><path d="M56.19,56.62a6.15,6.15,0,0,1,2.31-1.09l-8.94-11.6a25.38,25.38,0,1,0-3.94,3l8.93,11.6A6.15,6.15,0,0,1,56.19,56.62ZM45,42.09a20.74,20.74,0,1,1,.08-.06Z"/><path d="M82.27,81.24l-18.52-24a5.08,5.08,0,0,0-5.28-1.7,6,6,0,0,0-4,3,5.11,5.11,0,0,0,.28,5.55l18.49,24a5.68,5.68,0,0,0,9-6.89Z"/></svg>