<svg xmlns="http://www.w3.org/2000/svg" viewBox="0 0 76.5 90"><defs><style>.a{fill:none;}</style></defs><title>Icon by Alena Artemova from the Noun Project</title><circle class="a" cx="25.41" cy="25.41" r="21.05"/><path d="M49.44,56.62a6.12,6.12,0,0,1,2.31-1.09l-8.94-11.6a25.38,25.38,0,1,0-3.94,3l8.93,11.6A6.06,6.06,0,0,1,49.44,56.62ZM38.25,42.09a21,21,0,1,1,3.84-29.52A21,21,0,0,1,38.25,42.09Z"/><path d="M75.52,81.24,57,57.23a5.09,5.09,0,0,0-5.28-1.7,6,6,0,0,0-4,3,5.09,5.09,0,0,0,.28,5.55l18.49,24a5.68,5.68,0,0,0,9-6.89Z"/></svg>