<svg xmlns="http://www.w3.org/2000/svg" viewBox="0 0 41.29 23.73"><title>Ears drawing by Kate Maldjian from the Noun Project</title><g class="a"><path class="b" d="M3.7,11.59a3.67,3.67,0,0,1,1.44.29,3.51,3.51,0,0,1,1.17.79,3.65,3.65,0,0,1,.79,1.18,3.43,3.43,0,0,1,.29,1.44,3.5,3.5,0,0,1-.29,1.44A3.63,3.63,0,0,1,3.7,19a3.67,3.67,0,0,1-1.45-.28,3.77,3.77,0,0,1-1.17-.79A3.72,3.72,0,0,1,0,15.29V6.65H1.44v5.71a4.11,4.11,0,0,1,1.05-.57A3.76,3.76,0,0,1,3.7,11.59Zm0,5.95a2.38,2.38,0,0,0,.88-.17,2.2,2.2,0,0,0,.71-.49,2.14,2.14,0,0,0,.49-.72A2.29,2.29,0,0,0,6,15.29a2.38,2.38,0,0,0-.17-.88,2.29,2.29,0,0,0-1.2-1.2A2.2,2.2,0,0,0,3.7,13a2.15,2.15,0,0,0-.87.18,2.52,2.52,0,0,0-.72.48,2.42,2.42,0,0,0-.49.72,2.11,2.11,0,0,0-.18.86v0a2.12,2.12,0,0,0,.18.87,2.29,2.29,0,0,0,.49.72,2.36,2.36,0,0,0,.72.49A2.32,2.32,0,0,0,3.7,17.54Z"/><path class="b" d="M15,11.61v4.18a3.09,3.09,0,0,1-.39,1.54,3.14,3.14,0,0,1-1.06,1.14,4.19,4.19,0,0,1-.83.39,3.19,3.19,0,0,1-1.87,0,4,4,0,0,1-.84-.39,3.26,3.26,0,0,1-1-1.14,3,3,0,0,1-.4-1.54V11.61h1.44v4.18a1.81,1.81,0,0,0,.14.69,1.79,1.79,0,0,0,.38.56,1.85,1.85,0,0,0,.56.38,1.77,1.77,0,0,0,1.38,0,2,2,0,0,0,.56-.38,1.79,1.79,0,0,0,.38-.56,1.64,1.64,0,0,0,.14-.69V11.61Z"/><path class="b" d="M23.63,15.29a3.66,3.66,0,0,1-.28,1.44,3.85,3.85,0,0,1-.8,1.18,3.77,3.77,0,0,1-4.06.79,3.77,3.77,0,0,1-1.17-.79,3.72,3.72,0,0,1-1.08-2.62,3.6,3.6,0,0,1,.29-1.44,3.65,3.65,0,0,1,.79-1.18,3.61,3.61,0,0,1,1.17-.79,3.68,3.68,0,0,1,1.45-.29,3.74,3.74,0,0,1,1.21.2,4.22,4.22,0,0,1,1,.57V6.65h1.44v8.64Zm-3.69,2.25a2.29,2.29,0,0,0,.87-.17A2.33,2.33,0,0,0,22,16.16a2.29,2.29,0,0,0,.17-.87v0a2.27,2.27,0,0,0-.17-.86,2.24,2.24,0,0,0-.49-.72,2.27,2.27,0,0,0-.72-.48,2.12,2.12,0,0,0-.87-.18,2.15,2.15,0,0,0-.87.18,2.52,2.52,0,0,0-.72.48,2.55,2.55,0,0,0-.49.72,2.2,2.2,0,0,0-.18.88,2.12,2.12,0,0,0,.18.87,2.29,2.29,0,0,0,.49.72,2.36,2.36,0,0,0,.72.49A2.32,2.32,0,0,0,19.94,17.54Z"/><path class="b" d="M32.24,15.29A3.5,3.5,0,0,1,32,16.73a3.74,3.74,0,0,1-4.85,2,3.77,3.77,0,0,1-1.17-.79,3.65,3.65,0,0,1-.79-1.18,3.5,3.5,0,0,1-.29-1.44,3.43,3.43,0,0,1,.29-1.44,3.65,3.65,0,0,1,.79-1.18,3.61,3.61,0,0,1,1.17-.79,3.68,3.68,0,0,1,1.45-.29,3.74,3.74,0,0,1,1.21.2,4.22,4.22,0,0,1,1,.57V6.65h1.44v8.64Zm-3.69,2.25a2.38,2.38,0,0,0,.88-.17,2.2,2.2,0,0,0,.71-.49,2,2,0,0,0,.48-.72,2.12,2.12,0,0,0,.18-.87v0a2.11,2.11,0,0,0-.18-.86,2.07,2.07,0,0,0-.48-.72,2.34,2.34,0,0,0-.71-.48,2.2,2.2,0,0,0-.88-.18,2.15,2.15,0,0,0-.87.18,2.52,2.52,0,0,0-.72.48,2.55,2.55,0,0,0-.49.72,2.2,2.2,0,0,0-.18.88,2.12,2.12,0,0,0,.18.87,2.29,2.29,0,0,0,.49.72,2.36,2.36,0,0,0,.72.49A2.32,2.32,0,0,0,28.55,17.54Z"/><path class="b" d="M41.29,11.61,38,18.34l-.86,1.78-1.73,3.61H33.78L36.4,18.3l-2.94-6.69H35.1l2.15,4.91,2.37-4.91Z"/></g><path class="b" d="M3.59,10.5c-.6-.1-.7-.3-.6-.6.4-.9.7-1.7,1-2.5.1-.2.2-.3.3-.5L.69,1.5c.4,0,.8-.1,1.2-.1A22.27,22.27,0,0,1,7,2.6c.2.1.4.1.6.2a2.55,2.55,0,0,0,2.1-.1,7.69,7.69,0,0,1,6.3,0,.75.75,0,0,0,.9,0c.9-.4,1.8-.9,2.8-1.3,1.2-.4,2.5-.8,3.8-1.3.3,0,.5-.1.8-.1.4.4.2.7,0,1A21.41,21.41,0,0,1,23,2.9c-.9,1.2-1.9,2.4-2.8,3.6a2.68,2.68,0,0,0-.4,2.6,4.25,4.25,0,0,1,.2,1.1c0,.1-.2.3-.4.4l-.4-.4c-.1-.7-.2-1.3-.3-2a9.68,9.68,0,0,0-1.4-3.3,5.59,5.59,0,0,0-5.6-2.2,9.44,9.44,0,0,0-5,2.2,9.41,9.41,0,0,0-3,4.4Zm15.8-3.8,1.8-2.5c.7-.9,1.4-1.8,2-2.7a3.55,3.55,0,0,0,.4-.9,24.8,24.8,0,0,0-6.5,2.7ZM4.59,6.2l3.2-2.8c-2-.6-3.7-1.4-6-1.4A23.62,23.62,0,0,0,4.59,6.2Z"/></svg>